<svg width="147" height="54" viewBox="0 0 147 54" fill="none" xmlns="http://www.w3.org/2000/svg">
<rect width="147" height="54" fill="#25A59E"/>
<path d="M39.3124 33.234C38.4604 33.234 37.6594 33.066 36.9094 32.73C36.1594 32.388 35.4994 31.92 34.9294 31.326C34.3654 30.726 33.9214 30.03 33.5974 29.238C33.2794 28.446 33.1204 27.6 33.1204 26.7C33.1204 25.8 33.2794 24.954 33.5974 24.162C33.9214 23.37 34.3654 22.677 34.9294 22.083C35.4994 21.483 36.1594 21.015 36.9094 20.679C37.6594 20.337 38.4604 20.166 39.3124 20.166C40.3324 20.166 41.2714 20.403 42.1294 20.877C42.9874 21.351 43.6984 21.981 44.2624 22.767L42.5974 23.658C42.2074 23.166 41.7244 22.773 41.1484 22.479C40.5724 22.185 39.9604 22.038 39.3124 22.038C38.7124 22.038 38.1514 22.161 37.6294 22.407C37.1074 22.653 36.6484 22.989 36.2524 23.415C35.8564 23.841 35.5474 24.336 35.3254 24.9C35.1034 25.464 34.9924 26.064 34.9924 26.7C34.9924 27.342 35.1034 27.945 35.3254 28.509C35.5474 29.067 35.8564 29.562 36.2524 29.994C36.6544 30.42 37.1164 30.756 37.6384 31.002C38.1604 31.242 38.7184 31.362 39.3124 31.362C39.9724 31.362 40.5874 31.215 41.1574 30.921C41.7334 30.621 42.2134 30.225 42.5974 29.733L44.2624 30.642C43.6984 31.428 42.9874 32.058 42.1294 32.532C41.2714 33 40.3324 33.234 39.3124 33.234ZM46.0136 33V19.5H47.8856V33H46.0136ZM50.039 24H51.911V33H50.039V24ZM50.993 22.695C50.705 22.695 50.465 22.602 50.273 22.416C50.081 22.23 49.985 21.996 49.985 21.714C49.985 21.438 50.081 21.207 50.273 21.021C50.465 20.829 50.702 20.733 50.984 20.733C51.26 20.733 51.494 20.829 51.686 21.021C51.878 21.207 51.974 21.438 51.974 21.714C51.974 21.996 51.878 22.23 51.686 22.416C51.5 22.602 51.269 22.695 50.993 22.695ZM59.7832 30.444L61.4572 31.353C61.0492 31.923 60.5302 32.379 59.9002 32.721C59.2762 33.063 58.5982 33.234 57.8662 33.234C57.0382 33.234 56.2822 33.021 55.5982 32.595C54.9202 32.169 54.3772 31.599 53.9692 30.885C53.5672 30.165 53.3662 29.37 53.3662 28.5C53.3662 27.84 53.4832 27.225 53.7172 26.655C53.9512 26.079 54.2722 25.575 54.6802 25.143C55.0942 24.705 55.5742 24.363 56.1202 24.117C56.6662 23.871 57.2482 23.748 57.8662 23.748C58.5982 23.748 59.2762 23.919 59.9002 24.261C60.5302 24.603 61.0492 25.062 61.4572 25.638L59.7832 26.547C59.5312 26.247 59.2372 26.019 58.9012 25.863C58.5652 25.701 58.2202 25.62 57.8662 25.62C57.3742 25.62 56.9272 25.755 56.5252 26.025C56.1292 26.289 55.8142 26.64 55.5802 27.078C55.3522 27.51 55.2382 27.984 55.2382 28.5C55.2382 29.01 55.3552 29.484 55.5892 29.922C55.8232 30.354 56.1382 30.702 56.5342 30.966C56.9362 31.23 57.3802 31.362 57.8662 31.362C58.2382 31.362 58.5922 31.278 58.9282 31.11C59.2642 30.942 59.5492 30.72 59.7832 30.444ZM70.5484 33H68.3884L66.1744 29.184L64.7254 30.912V33H62.8534V19.5H64.7254V28.005L68.0734 24H70.5214L67.4524 27.663L70.5484 33ZM84.6292 27.357V33H82.7572V27.816C82.7572 27.414 82.6582 27.048 82.4602 26.718C82.2682 26.388 82.0072 26.127 81.6772 25.935C81.3532 25.737 80.9872 25.638 80.5792 25.638C80.1832 25.638 79.8202 25.737 79.4902 25.935C79.1602 26.127 78.8962 26.388 78.6982 26.718C78.5002 27.048 78.4012 27.414 78.4012 27.816V33H76.5292V19.5H78.4012V24.954C78.7132 24.582 79.0972 24.288 79.5532 24.072C80.0092 23.856 80.5012 23.748 81.0292 23.748C81.6952 23.748 82.3012 23.91 82.8472 24.234C83.3932 24.558 83.8252 24.993 84.1432 25.539C84.4672 26.085 84.6292 26.691 84.6292 27.357ZM90.2099 33.234C89.3819 33.234 88.6259 33.021 87.9419 32.595C87.2639 32.169 86.7209 31.599 86.3129 30.885C85.9109 30.165 85.7099 29.37 85.7099 28.5C85.7099 27.84 85.8269 27.225 86.0609 26.655C86.2949 26.079 86.6159 25.575 87.0239 25.143C87.4379 24.705 87.9179 24.363 88.4639 24.117C89.0099 23.871 89.5919 23.748 90.2099 23.748C90.8999 23.748 91.5329 23.892 92.1089 24.18C92.6849 24.462 93.1769 24.855 93.5849 25.359C93.9929 25.857 94.2929 26.433 94.4849 27.087C94.6769 27.735 94.7339 28.425 94.6559 29.157H87.7169C87.7949 29.571 87.9449 29.946 88.1669 30.282C88.3949 30.612 88.6829 30.873 89.0309 31.065C89.3849 31.257 89.7779 31.356 90.2099 31.362C90.6659 31.362 91.0799 31.248 91.4519 31.02C91.8299 30.792 92.1389 30.477 92.3789 30.075L94.2779 30.516C93.9179 31.314 93.3749 31.968 92.6489 32.478C91.9229 32.982 91.1099 33.234 90.2099 33.234ZM87.6539 27.726H92.7659C92.7059 27.294 92.5529 26.904 92.3069 26.556C92.0669 26.202 91.7639 25.923 91.3979 25.719C91.0379 25.509 90.6419 25.404 90.2099 25.404C89.7839 25.404 89.3879 25.506 89.0219 25.71C88.6619 25.914 88.3619 26.193 88.1219 26.547C87.8879 26.895 87.7319 27.288 87.6539 27.726ZM96.1464 33V24H98.0184V24.954C98.3304 24.582 98.7144 24.288 99.1704 24.072C99.6264 23.856 100.118 23.748 100.646 23.748C100.982 23.748 101.315 23.793 101.645 23.883L100.898 25.773C100.664 25.683 100.43 25.638 100.196 25.638C99.8004 25.638 99.4374 25.737 99.1074 25.935C98.7774 26.127 98.5134 26.388 98.3154 26.718C98.1174 27.048 98.0184 27.414 98.0184 27.816V33H96.1464ZM106.224 33.234C105.396 33.234 104.64 33.021 103.956 32.595C103.278 32.169 102.735 31.599 102.327 30.885C101.925 30.165 101.724 29.37 101.724 28.5C101.724 27.84 101.841 27.225 102.075 26.655C102.309 26.079 102.63 25.575 103.038 25.143C103.452 24.705 103.932 24.363 104.478 24.117C105.024 23.871 105.606 23.748 106.224 23.748C106.914 23.748 107.547 23.892 108.123 24.18C108.699 24.462 109.191 24.855 109.599 25.359C110.007 25.857 110.307 26.433 110.499 27.087C110.691 27.735 110.748 28.425 110.67 29.157H103.731C103.809 29.571 103.959 29.946 104.181 30.282C104.409 30.612 104.697 30.873 105.045 31.065C105.399 31.257 105.792 31.356 106.224 31.362C106.68 31.362 107.094 31.248 107.466 31.02C107.844 30.792 108.153 30.477 108.393 30.075L110.292 30.516C109.932 31.314 109.389 31.968 108.663 32.478C107.937 32.982 107.124 33.234 106.224 33.234ZM103.668 27.726H108.78C108.72 27.294 108.567 26.904 108.321 26.556C108.081 26.202 107.778 25.923 107.412 25.719C107.052 25.509 106.656 25.404 106.224 25.404C105.798 25.404 105.402 25.506 105.036 25.71C104.676 25.914 104.376 26.193 104.136 26.547C103.902 26.895 103.746 27.288 103.668 27.726ZM112.147 29.22V20.4H113.74V29.22H112.147ZM112.948 33.234C112.672 33.234 112.438 33.138 112.246 32.946C112.054 32.754 111.958 32.517 111.958 32.235C111.958 31.965 112.054 31.737 112.246 31.551C112.438 31.359 112.672 31.263 112.948 31.263C113.218 31.263 113.446 31.359 113.632 31.551C113.824 31.737 113.92 31.965 113.92 32.235C113.92 32.517 113.824 32.754 113.632 32.946C113.446 33.138 113.218 33.234 112.948 33.234Z" fill="white"/>
</svg>
