<svg width="463" height="44" viewBox="0 0 463 44" fill="none" xmlns="http://www.w3.org/2000/svg">
<path d="M8.649 21.4H10.521V34H8.649V28.186H2.952V34H1.08V21.4H2.952V26.314H8.649V21.4ZM16.5185 34.234C15.6905 34.234 14.9345 34.021 14.2505 33.595C13.5725 33.169 13.0295 32.599 12.6215 31.885C12.2195 31.165 12.0185 30.37 12.0185 29.5C12.0185 28.84 12.1355 28.225 12.3695 27.655C12.6035 27.079 12.9245 26.575 13.3325 26.143C13.7465 25.705 14.2265 25.363 14.7725 25.117C15.3185 24.871 15.9005 24.748 16.5185 24.748C17.3465 24.748 18.0995 24.961 18.7775 25.387C19.4615 25.813 20.0045 26.386 20.4065 27.106C20.8145 27.826 21.0185 28.624 21.0185 29.5C21.0185 30.154 20.9015 30.766 20.6675 31.336C20.4335 31.906 20.1095 32.41 19.6955 32.848C19.2875 33.28 18.8105 33.619 18.2645 33.865C17.7245 34.111 17.1425 34.234 16.5185 34.234ZM16.5185 32.362C17.0165 32.362 17.4635 32.23 17.8595 31.966C18.2555 31.702 18.5675 31.354 18.7955 30.922C19.0295 30.484 19.1465 30.01 19.1465 29.5C19.1465 28.978 19.0265 28.498 18.7865 28.06C18.5525 27.622 18.2375 27.274 17.8415 27.016C17.4455 26.752 17.0045 26.62 16.5185 26.62C16.0265 26.62 15.5795 26.752 15.1775 27.016C14.7815 27.28 14.4665 27.631 14.2325 28.069C14.0045 28.507 13.8905 28.984 13.8905 29.5C13.8905 30.034 14.0105 30.517 14.2505 30.949C14.4905 31.381 14.8085 31.726 15.2045 31.984C15.6065 32.236 16.0445 32.362 16.5185 32.362ZM22.4726 34V25H24.3446V25.954C24.6566 25.582 25.0376 25.288 25.4876 25.072C25.9436 24.856 26.4356 24.748 26.9636 24.748C27.6056 24.748 28.1966 24.904 28.7366 25.216C29.2766 25.522 29.7056 25.93 30.0236 26.44C30.3416 25.93 30.7646 25.522 31.2926 25.216C31.8266 24.904 32.4146 24.748 33.0566 24.748C33.7226 24.748 34.3286 24.91 34.8746 25.234C35.4206 25.558 35.8556 25.993 36.1796 26.539C36.5036 27.085 36.6656 27.691 36.6656 28.357V34H34.7936V28.834C34.7936 28.438 34.6976 28.075 34.5056 27.745C34.3136 27.415 34.0556 27.148 33.7316 26.944C33.4076 26.74 33.0476 26.638 32.6516 26.638C32.2556 26.638 31.8956 26.734 31.5716 26.926C31.2476 27.118 30.9896 27.379 30.7976 27.709C30.6056 28.039 30.5096 28.414 30.5096 28.834V34H28.6376V28.834C28.6376 28.414 28.5416 28.039 28.3496 27.709C28.1576 27.379 27.8966 27.118 27.5666 26.926C27.2426 26.734 26.8826 26.638 26.4866 26.638C26.0966 26.638 25.7366 26.74 25.4066 26.944C25.0826 27.148 24.8246 27.415 24.6326 27.745C24.4406 28.075 24.3446 28.438 24.3446 28.834V34H22.4726ZM42.2529 34.234C41.4249 34.234 40.6689 34.021 39.9849 33.595C39.3069 33.169 38.7639 32.599 38.3559 31.885C37.9539 31.165 37.7529 30.37 37.7529 29.5C37.7529 28.84 37.8699 28.225 38.1039 27.655C38.3379 27.079 38.6589 26.575 39.0669 26.143C39.4809 25.705 39.9609 25.363 40.5069 25.117C41.0529 24.871 41.6349 24.748 42.2529 24.748C42.9429 24.748 43.5759 24.892 44.1519 25.18C44.7279 25.462 45.2199 25.855 45.6279 26.359C46.0359 26.857 46.3359 27.433 46.5279 28.087C46.7199 28.735 46.7769 29.425 46.6989 30.157H39.7599C39.8379 30.571 39.9879 30.946 40.2099 31.282C40.4379 31.612 40.7259 31.873 41.0739 32.065C41.4279 32.257 41.8209 32.356 42.2529 32.362C42.7089 32.362 43.1229 32.248 43.4949 32.02C43.8729 31.792 44.1819 31.477 44.4219 31.075L46.3209 31.516C45.9609 32.314 45.4179 32.968 44.6919 33.478C43.9659 33.982 43.1529 34.234 42.2529 34.234ZM39.6969 28.726H44.8089C44.7489 28.294 44.5959 27.904 44.3499 27.556C44.1099 27.202 43.8069 26.923 43.4409 26.719C43.0809 26.509 42.6849 26.404 42.2529 26.404C41.8269 26.404 41.4309 26.506 41.0649 26.71C40.7049 26.914 40.4049 27.193 40.1649 27.547C39.9309 27.895 39.7749 28.288 39.6969 28.726Z" fill="#595959"/>
<path d="M109.08 34V21.4H113.247C114.117 21.4 114.933 21.565 115.695 21.895C116.457 22.219 117.126 22.672 117.702 23.254C118.278 23.83 118.728 24.499 119.052 25.261C119.382 26.017 119.547 26.83 119.547 27.7C119.547 28.57 119.382 29.386 119.052 30.148C118.728 30.904 118.278 31.573 117.702 32.155C117.126 32.731 116.457 33.184 115.695 33.514C114.933 33.838 114.117 34 113.247 34H109.08ZM110.952 32.128H113.247C113.859 32.128 114.429 32.014 114.957 31.786C115.491 31.558 115.962 31.24 116.37 30.832C116.784 30.424 117.105 29.953 117.333 29.419C117.561 28.885 117.675 28.312 117.675 27.7C117.675 27.088 117.561 26.515 117.333 25.981C117.105 25.447 116.784 24.976 116.37 24.568C115.962 24.16 115.491 23.842 114.957 23.614C114.429 23.386 113.859 23.272 113.247 23.272H110.952V32.128ZM124.905 34.234C124.077 34.234 123.321 34.021 122.637 33.595C121.959 33.169 121.416 32.599 121.008 31.885C120.606 31.165 120.405 30.37 120.405 29.5C120.405 28.84 120.522 28.225 120.756 27.655C120.99 27.079 121.311 26.575 121.719 26.143C122.133 25.705 122.613 25.363 123.159 25.117C123.705 24.871 124.287 24.748 124.905 24.748C125.595 24.748 126.228 24.892 126.804 25.18C127.38 25.462 127.872 25.855 128.28 26.359C128.688 26.857 128.988 27.433 129.18 28.087C129.372 28.735 129.429 29.425 129.351 30.157H122.412C122.49 30.571 122.64 30.946 122.862 31.282C123.09 31.612 123.378 31.873 123.726 32.065C124.08 32.257 124.473 32.356 124.905 32.362C125.361 32.362 125.775 32.248 126.147 32.02C126.525 31.792 126.834 31.477 127.074 31.075L128.973 31.516C128.613 32.314 128.07 32.968 127.344 33.478C126.618 33.982 125.805 34.234 124.905 34.234ZM122.349 28.726H127.461C127.401 28.294 127.248 27.904 127.002 27.556C126.762 27.202 126.459 26.923 126.093 26.719C125.733 26.509 125.337 26.404 124.905 26.404C124.479 26.404 124.083 26.506 123.717 26.71C123.357 26.914 123.057 27.193 122.817 27.547C122.583 27.895 122.427 28.288 122.349 28.726ZM133.577 34.171C133.103 34.141 132.641 34.045 132.191 33.883C131.741 33.721 131.345 33.502 131.003 33.226C130.667 32.944 130.415 32.614 130.247 32.236L131.84 31.552C131.918 31.714 132.053 31.873 132.245 32.029C132.443 32.185 132.674 32.314 132.938 32.416C133.202 32.512 133.478 32.56 133.766 32.56C134.048 32.56 134.309 32.521 134.549 32.443C134.795 32.359 134.996 32.233 135.152 32.065C135.308 31.897 135.386 31.696 135.386 31.462C135.386 31.198 135.296 30.994 135.116 30.85C134.942 30.7 134.723 30.586 134.459 30.508C134.195 30.43 133.931 30.355 133.667 30.283C133.079 30.151 132.539 29.971 132.047 29.743C131.561 29.509 131.174 29.212 130.886 28.852C130.598 28.486 130.454 28.039 130.454 27.511C130.454 26.935 130.61 26.437 130.922 26.017C131.234 25.591 131.642 25.264 132.146 25.036C132.656 24.808 133.199 24.694 133.775 24.694C134.495 24.694 135.155 24.847 135.755 25.153C136.355 25.459 136.814 25.879 137.132 26.413L135.647 27.295C135.557 27.115 135.422 26.953 135.242 26.809C135.062 26.665 134.858 26.551 134.63 26.467C134.402 26.377 134.165 26.326 133.919 26.314C133.613 26.302 133.328 26.338 133.064 26.422C132.806 26.5 132.599 26.626 132.443 26.8C132.287 26.974 132.209 27.196 132.209 27.466C132.209 27.73 132.302 27.928 132.488 28.06C132.674 28.186 132.908 28.288 133.19 28.366C133.478 28.444 133.772 28.531 134.072 28.627C134.606 28.795 135.107 29.002 135.575 29.248C136.043 29.488 136.421 29.785 136.709 30.139C136.997 30.493 137.135 30.925 137.123 31.435C137.123 31.999 136.952 32.494 136.61 32.92C136.274 33.346 135.836 33.67 135.296 33.892C134.756 34.114 134.183 34.207 133.577 34.171ZM143.416 26.872H141.526L141.517 34H139.645L139.654 26.872H138.223V25H139.654L139.645 22.174H141.517L141.526 25H143.416V26.872ZM144.904 25H146.776V34H144.904V25ZM145.858 23.695C145.57 23.695 145.33 23.602 145.138 23.416C144.946 23.23 144.85 22.996 144.85 22.714C144.85 22.438 144.946 22.207 145.138 22.021C145.33 21.829 145.567 21.733 145.849 21.733C146.125 21.733 146.359 21.829 146.551 22.021C146.743 22.207 146.839 22.438 146.839 22.714C146.839 22.996 146.743 23.23 146.551 23.416C146.365 23.602 146.134 23.695 145.858 23.695ZM156.959 28.357V34H155.087V28.816C155.087 28.414 154.988 28.048 154.79 27.718C154.598 27.388 154.337 27.127 154.007 26.935C153.683 26.737 153.317 26.638 152.909 26.638C152.513 26.638 152.15 26.737 151.82 26.935C151.49 27.127 151.226 27.388 151.028 27.718C150.83 28.048 150.731 28.414 150.731 28.816V34H148.859V25H150.731V25.954C151.043 25.582 151.427 25.288 151.883 25.072C152.339 24.856 152.831 24.748 153.359 24.748C154.025 24.748 154.631 24.91 155.177 25.234C155.723 25.558 156.155 25.993 156.473 26.539C156.797 27.085 156.959 27.691 156.959 28.357ZM165.582 25H167.454V34H165.573L165.501 32.695C165.237 33.157 164.88 33.529 164.43 33.811C163.98 34.093 163.449 34.234 162.837 34.234C162.177 34.234 161.556 34.111 160.974 33.865C160.392 33.613 159.879 33.265 159.435 32.821C158.997 32.377 158.655 31.867 158.409 31.291C158.163 30.709 158.04 30.085 158.04 29.419C158.04 28.777 158.16 28.174 158.4 27.61C158.64 27.04 158.973 26.542 159.399 26.116C159.825 25.69 160.317 25.357 160.875 25.117C161.439 24.871 162.042 24.748 162.684 24.748C163.338 24.748 163.914 24.898 164.412 25.198C164.916 25.492 165.333 25.87 165.663 26.332L165.582 25ZM162.792 32.425C163.32 32.425 163.782 32.296 164.178 32.038C164.574 31.774 164.88 31.42 165.096 30.976C165.318 30.532 165.429 30.04 165.429 29.5C165.429 28.954 165.318 28.459 165.096 28.015C164.874 27.571 164.565 27.22 164.169 26.962C163.779 26.698 163.32 26.566 162.792 26.566C162.27 26.566 161.793 26.698 161.361 26.962C160.929 27.226 160.587 27.58 160.335 28.024C160.083 28.468 159.957 28.96 159.957 29.5C159.957 30.046 160.086 30.541 160.344 30.985C160.608 31.423 160.953 31.774 161.379 32.038C161.811 32.296 162.282 32.425 162.792 32.425ZM174.002 26.872H172.112L172.103 34H170.231L170.24 26.872H168.809V25H170.24L170.231 22.174H172.103L172.112 25H174.002V26.872ZM175.49 25H177.362V34H175.49V25ZM176.444 23.695C176.156 23.695 175.916 23.602 175.724 23.416C175.532 23.23 175.436 22.996 175.436 22.714C175.436 22.438 175.532 22.207 175.724 22.021C175.916 21.829 176.153 21.733 176.435 21.733C176.711 21.733 176.945 21.829 177.137 22.021C177.329 22.207 177.425 22.438 177.425 22.714C177.425 22.996 177.329 23.23 177.137 23.416C176.951 23.602 176.72 23.695 176.444 23.695ZM183.317 34.234C182.489 34.234 181.733 34.021 181.049 33.595C180.371 33.169 179.828 32.599 179.42 31.885C179.018 31.165 178.817 30.37 178.817 29.5C178.817 28.84 178.934 28.225 179.168 27.655C179.402 27.079 179.723 26.575 180.131 26.143C180.545 25.705 181.025 25.363 181.571 25.117C182.117 24.871 182.699 24.748 183.317 24.748C184.145 24.748 184.898 24.961 185.576 25.387C186.26 25.813 186.803 26.386 187.205 27.106C187.613 27.826 187.817 28.624 187.817 29.5C187.817 30.154 187.7 30.766 187.466 31.336C187.232 31.906 186.908 32.41 186.494 32.848C186.086 33.28 185.609 33.619 185.063 33.865C184.523 34.111 183.941 34.234 183.317 34.234ZM183.317 32.362C183.815 32.362 184.262 32.23 184.658 31.966C185.054 31.702 185.366 31.354 185.594 30.922C185.828 30.484 185.945 30.01 185.945 29.5C185.945 28.978 185.825 28.498 185.585 28.06C185.351 27.622 185.036 27.274 184.64 27.016C184.244 26.752 183.803 26.62 183.317 26.62C182.825 26.62 182.378 26.752 181.976 27.016C181.58 27.28 181.265 27.631 181.031 28.069C180.803 28.507 180.689 28.984 180.689 29.5C180.689 30.034 180.809 30.517 181.049 30.949C181.289 31.381 181.607 31.726 182.003 31.984C182.405 32.236 182.843 32.362 183.317 32.362ZM197.371 28.357V34H195.499V28.816C195.499 28.414 195.4 28.048 195.202 27.718C195.01 27.388 194.749 27.127 194.419 26.935C194.095 26.737 193.729 26.638 193.321 26.638C192.925 26.638 192.562 26.737 192.232 26.935C191.902 27.127 191.638 27.388 191.44 27.718C191.242 28.048 191.143 28.414 191.143 28.816V34H189.271V25H191.143V25.954C191.455 25.582 191.839 25.288 192.295 25.072C192.751 24.856 193.243 24.748 193.771 24.748C194.437 24.748 195.043 24.91 195.589 25.234C196.135 25.558 196.567 25.993 196.885 26.539C197.209 27.085 197.371 27.691 197.371 28.357ZM201.868 34.171C201.394 34.141 200.932 34.045 200.482 33.883C200.032 33.721 199.636 33.502 199.294 33.226C198.958 32.944 198.706 32.614 198.538 32.236L200.131 31.552C200.209 31.714 200.344 31.873 200.536 32.029C200.734 32.185 200.965 32.314 201.229 32.416C201.493 32.512 201.769 32.56 202.057 32.56C202.339 32.56 202.6 32.521 202.84 32.443C203.086 32.359 203.287 32.233 203.443 32.065C203.599 31.897 203.677 31.696 203.677 31.462C203.677 31.198 203.587 30.994 203.407 30.85C203.233 30.7 203.014 30.586 202.75 30.508C202.486 30.43 202.222 30.355 201.958 30.283C201.37 30.151 200.83 29.971 200.338 29.743C199.852 29.509 199.465 29.212 199.177 28.852C198.889 28.486 198.745 28.039 198.745 27.511C198.745 26.935 198.901 26.437 199.213 26.017C199.525 25.591 199.933 25.264 200.437 25.036C200.947 24.808 201.49 24.694 202.066 24.694C202.786 24.694 203.446 24.847 204.046 25.153C204.646 25.459 205.105 25.879 205.423 26.413L203.938 27.295C203.848 27.115 203.713 26.953 203.533 26.809C203.353 26.665 203.149 26.551 202.921 26.467C202.693 26.377 202.456 26.326 202.21 26.314C201.904 26.302 201.619 26.338 201.355 26.422C201.097 26.5 200.89 26.626 200.734 26.8C200.578 26.974 200.5 27.196 200.5 27.466C200.5 27.73 200.593 27.928 200.779 28.06C200.965 28.186 201.199 28.288 201.481 28.366C201.769 28.444 202.063 28.531 202.363 28.627C202.897 28.795 203.398 29.002 203.866 29.248C204.334 29.488 204.712 29.785 205 30.139C205.288 30.493 205.426 30.925 205.414 31.435C205.414 31.999 205.243 32.494 204.901 32.92C204.565 33.346 204.127 33.67 203.587 33.892C203.047 34.114 202.474 34.207 201.868 34.171Z" fill="#595959"/>
<path d="M272.921 34.234C272.045 34.234 271.229 34.066 270.473 33.73C269.723 33.388 269.066 32.917 268.502 32.317C267.944 31.711 267.506 31.012 267.188 30.22C266.876 29.428 266.72 28.585 266.72 27.691C266.72 26.749 266.888 25.882 267.224 25.09C267.56 24.298 268.019 23.611 268.601 23.029C269.183 22.441 269.846 21.985 270.59 21.661C271.34 21.337 272.126 21.175 272.948 21.175C273.878 21.175 274.772 21.391 275.63 21.823C276.488 22.255 277.235 22.903 277.871 23.767L276.197 24.676C275.765 24.136 275.261 23.728 274.685 23.452C274.115 23.176 273.53 23.038 272.93 23.038C272.348 23.038 271.796 23.158 271.274 23.398C270.752 23.632 270.29 23.962 269.888 24.388C269.486 24.808 269.168 25.303 268.934 25.873C268.706 26.437 268.592 27.052 268.592 27.718C268.592 28.36 268.703 28.963 268.925 29.527C269.153 30.091 269.465 30.586 269.861 31.012C270.263 31.432 270.725 31.762 271.247 32.002C271.775 32.242 272.339 32.362 272.939 32.362C273.383 32.362 273.809 32.29 274.217 32.146C274.625 32.002 275.003 31.798 275.351 31.534C275.705 31.264 276.014 30.943 276.278 30.571C276.542 30.199 276.752 29.785 276.908 29.329H274.235V27.673H279.104C279.116 28.573 278.96 29.419 278.636 30.211C278.318 31.003 277.874 31.702 277.304 32.308C276.74 32.908 276.083 33.379 275.333 33.721C274.583 34.063 273.779 34.234 272.921 34.234ZM280.308 30.625V25H282.18V30.166C282.18 30.568 282.279 30.934 282.477 31.264C282.675 31.594 282.939 31.858 283.269 32.056C283.599 32.248 283.962 32.344 284.358 32.344C284.76 32.344 285.123 32.248 285.447 32.056C285.777 31.858 286.038 31.594 286.23 31.264C286.428 30.934 286.527 30.568 286.527 30.166V25H288.399L288.408 34H286.536L286.527 33.028C286.221 33.4 285.84 33.694 285.384 33.91C284.928 34.126 284.439 34.234 283.917 34.234C283.251 34.234 282.645 34.072 282.099 33.748C281.553 33.424 281.118 32.989 280.794 32.443C280.47 31.897 280.308 31.291 280.308 30.625ZM290.213 25H292.085V34H290.213V25ZM291.167 23.695C290.879 23.695 290.639 23.602 290.447 23.416C290.255 23.23 290.159 22.996 290.159 22.714C290.159 22.438 290.255 22.207 290.447 22.021C290.639 21.829 290.876 21.733 291.158 21.733C291.434 21.733 291.668 21.829 291.86 22.021C292.052 22.207 292.148 22.438 292.148 22.714C292.148 22.996 292.052 23.23 291.86 23.416C291.674 23.602 291.443 23.695 291.167 23.695ZM301.091 20.5H302.963V34H301.091V32.677C300.797 33.145 300.413 33.523 299.939 33.811C299.465 34.093 298.91 34.234 298.274 34.234C297.62 34.234 297.008 34.111 296.438 33.865C295.868 33.619 295.364 33.28 294.926 32.848C294.494 32.41 294.155 31.906 293.909 31.336C293.663 30.766 293.54 30.154 293.54 29.5C293.54 28.846 293.663 28.234 293.909 27.664C294.155 27.088 294.494 26.584 294.926 26.152C295.364 25.714 295.868 25.372 296.438 25.126C297.008 24.88 297.62 24.757 298.274 24.757C298.91 24.757 299.465 24.901 299.939 25.189C300.413 25.471 300.797 25.843 301.091 26.305V20.5ZM298.292 32.425C298.82 32.425 299.282 32.296 299.678 32.038C300.074 31.774 300.38 31.42 300.596 30.976C300.818 30.532 300.929 30.04 300.929 29.5C300.929 28.954 300.818 28.459 300.596 28.015C300.374 27.571 300.065 27.22 299.669 26.962C299.279 26.698 298.82 26.566 298.292 26.566C297.77 26.566 297.293 26.698 296.861 26.962C296.435 27.226 296.093 27.58 295.835 28.024C295.583 28.468 295.457 28.96 295.457 29.5C295.457 30.046 295.586 30.541 295.844 30.985C296.108 31.423 296.453 31.774 296.879 32.038C297.311 32.296 297.782 32.425 298.292 32.425ZM308.956 34.234C308.128 34.234 307.372 34.021 306.688 33.595C306.01 33.169 305.467 32.599 305.059 31.885C304.657 31.165 304.456 30.37 304.456 29.5C304.456 28.84 304.573 28.225 304.807 27.655C305.041 27.079 305.362 26.575 305.77 26.143C306.184 25.705 306.664 25.363 307.21 25.117C307.756 24.871 308.338 24.748 308.956 24.748C309.646 24.748 310.279 24.892 310.855 25.18C311.431 25.462 311.923 25.855 312.331 26.359C312.739 26.857 313.039 27.433 313.231 28.087C313.423 28.735 313.48 29.425 313.402 30.157H306.463C306.541 30.571 306.691 30.946 306.913 31.282C307.141 31.612 307.429 31.873 307.777 32.065C308.131 32.257 308.524 32.356 308.956 32.362C309.412 32.362 309.826 32.248 310.198 32.02C310.576 31.792 310.885 31.477 311.125 31.075L313.024 31.516C312.664 32.314 312.121 32.968 311.395 33.478C310.669 33.982 309.856 34.234 308.956 34.234ZM306.4 28.726H311.512C311.452 28.294 311.299 27.904 311.053 27.556C310.813 27.202 310.51 26.923 310.144 26.719C309.784 26.509 309.388 26.404 308.956 26.404C308.53 26.404 308.134 26.506 307.768 26.71C307.408 26.914 307.108 27.193 306.868 27.547C306.634 27.895 306.478 28.288 306.4 28.726Z" fill="#595959"/>
<path d="M380.912 34.234C380.06 34.234 379.259 34.066 378.509 33.73C377.759 33.388 377.099 32.92 376.529 32.326C375.965 31.726 375.521 31.03 375.197 30.238C374.879 29.446 374.72 28.6 374.72 27.7C374.72 26.8 374.879 25.954 375.197 25.162C375.521 24.37 375.965 23.677 376.529 23.083C377.099 22.483 377.759 22.015 378.509 21.679C379.259 21.337 380.06 21.166 380.912 21.166C381.932 21.166 382.871 21.403 383.729 21.877C384.587 22.351 385.298 22.981 385.862 23.767L384.197 24.658C383.807 24.166 383.324 23.773 382.748 23.479C382.172 23.185 381.56 23.038 380.912 23.038C380.312 23.038 379.751 23.161 379.229 23.407C378.707 23.653 378.248 23.989 377.852 24.415C377.456 24.841 377.147 25.336 376.925 25.9C376.703 26.464 376.592 27.064 376.592 27.7C376.592 28.342 376.703 28.945 376.925 29.509C377.147 30.067 377.456 30.562 377.852 30.994C378.254 31.42 378.716 31.756 379.238 32.002C379.76 32.242 380.318 32.362 380.912 32.362C381.572 32.362 382.187 32.215 382.757 31.921C383.333 31.621 383.813 31.225 384.197 30.733L385.862 31.642C385.298 32.428 384.587 33.058 383.729 33.532C382.871 34 381.932 34.234 380.912 34.234ZM391.099 34.234C390.271 34.234 389.515 34.021 388.831 33.595C388.153 33.169 387.61 32.599 387.202 31.885C386.8 31.165 386.599 30.37 386.599 29.5C386.599 28.84 386.716 28.225 386.95 27.655C387.184 27.079 387.505 26.575 387.913 26.143C388.327 25.705 388.807 25.363 389.353 25.117C389.899 24.871 390.481 24.748 391.099 24.748C391.927 24.748 392.68 24.961 393.358 25.387C394.042 25.813 394.585 26.386 394.987 27.106C395.395 27.826 395.599 28.624 395.599 29.5C395.599 30.154 395.482 30.766 395.248 31.336C395.014 31.906 394.69 32.41 394.276 32.848C393.868 33.28 393.391 33.619 392.845 33.865C392.305 34.111 391.723 34.234 391.099 34.234ZM391.099 32.362C391.597 32.362 392.044 32.23 392.44 31.966C392.836 31.702 393.148 31.354 393.376 30.922C393.61 30.484 393.727 30.01 393.727 29.5C393.727 28.978 393.607 28.498 393.367 28.06C393.133 27.622 392.818 27.274 392.422 27.016C392.026 26.752 391.585 26.62 391.099 26.62C390.607 26.62 390.16 26.752 389.758 27.016C389.362 27.28 389.047 27.631 388.813 28.069C388.585 28.507 388.471 28.984 388.471 29.5C388.471 30.034 388.591 30.517 388.831 30.949C389.071 31.381 389.389 31.726 389.785 31.984C390.187 32.236 390.625 32.362 391.099 32.362ZM405.153 28.357V34H403.281V28.816C403.281 28.414 403.182 28.048 402.984 27.718C402.792 27.388 402.531 27.127 402.201 26.935C401.877 26.737 401.511 26.638 401.103 26.638C400.707 26.638 400.344 26.737 400.014 26.935C399.684 27.127 399.42 27.388 399.222 27.718C399.024 28.048 398.925 28.414 398.925 28.816V34H397.053V25H398.925V25.954C399.237 25.582 399.621 25.288 400.077 25.072C400.533 24.856 401.025 24.748 401.553 24.748C402.219 24.748 402.825 24.91 403.371 25.234C403.917 25.558 404.349 25.993 404.667 26.539C404.991 27.085 405.153 27.691 405.153 28.357ZM411.701 26.872H409.811L409.802 34H407.93L407.939 26.872H406.508V25H407.939L407.93 22.174H409.802L409.811 25H411.701V26.872ZM420.103 25H421.975V34H420.094L420.022 32.695C419.758 33.157 419.401 33.529 418.951 33.811C418.501 34.093 417.97 34.234 417.358 34.234C416.698 34.234 416.077 34.111 415.495 33.865C414.913 33.613 414.4 33.265 413.956 32.821C413.518 32.377 413.176 31.867 412.93 31.291C412.684 30.709 412.561 30.085 412.561 29.419C412.561 28.777 412.681 28.174 412.921 27.61C413.161 27.04 413.494 26.542 413.92 26.116C414.346 25.69 414.838 25.357 415.396 25.117C415.96 24.871 416.563 24.748 417.205 24.748C417.859 24.748 418.435 24.898 418.933 25.198C419.437 25.492 419.854 25.87 420.184 26.332L420.103 25ZM417.313 32.425C417.841 32.425 418.303 32.296 418.699 32.038C419.095 31.774 419.401 31.42 419.617 30.976C419.839 30.532 419.95 30.04 419.95 29.5C419.95 28.954 419.839 28.459 419.617 28.015C419.395 27.571 419.086 27.22 418.69 26.962C418.3 26.698 417.841 26.566 417.313 26.566C416.791 26.566 416.314 26.698 415.882 26.962C415.45 27.226 415.108 27.58 414.856 28.024C414.604 28.468 414.478 28.96 414.478 29.5C414.478 30.046 414.607 30.541 414.865 30.985C415.129 31.423 415.474 31.774 415.9 32.038C416.332 32.296 416.803 32.425 417.313 32.425ZM429.473 31.444L431.147 32.353C430.739 32.923 430.22 33.379 429.59 33.721C428.966 34.063 428.288 34.234 427.556 34.234C426.728 34.234 425.972 34.021 425.288 33.595C424.61 33.169 424.067 32.599 423.659 31.885C423.257 31.165 423.056 30.37 423.056 29.5C423.056 28.84 423.173 28.225 423.407 27.655C423.641 27.079 423.962 26.575 424.37 26.143C424.784 25.705 425.264 25.363 425.81 25.117C426.356 24.871 426.938 24.748 427.556 24.748C428.288 24.748 428.966 24.919 429.59 25.261C430.22 25.603 430.739 26.062 431.147 26.638L429.473 27.547C429.221 27.247 428.927 27.019 428.591 26.863C428.255 26.701 427.91 26.62 427.556 26.62C427.064 26.62 426.617 26.755 426.215 27.025C425.819 27.289 425.504 27.64 425.27 28.078C425.042 28.51 424.928 28.984 424.928 29.5C424.928 30.01 425.045 30.484 425.279 30.922C425.513 31.354 425.828 31.702 426.224 31.966C426.626 32.23 427.07 32.362 427.556 32.362C427.928 32.362 428.282 32.278 428.618 32.11C428.954 31.942 429.239 31.72 429.473 31.444ZM437.523 26.872H435.633L435.624 34H433.752L433.761 26.872H432.33V25H433.761L433.752 22.174H435.624L435.633 25H437.523V26.872ZM448.445 34.234C447.437 34.234 446.558 33.988 445.808 33.496C445.064 33.004 444.485 32.344 444.071 31.516C443.663 30.682 443.459 29.758 443.459 28.744V21.4H445.331V28.744C445.331 29.404 445.451 30.01 445.691 30.562C445.937 31.108 446.291 31.546 446.753 31.876C447.221 32.2 447.785 32.362 448.445 32.362C449.123 32.362 449.693 32.2 450.155 31.876C450.617 31.546 450.965 31.108 451.199 30.562C451.439 30.01 451.559 29.404 451.559 28.744V21.4H453.431V28.744C453.431 29.506 453.314 30.22 453.08 30.886C452.846 31.546 452.51 32.128 452.072 32.632C451.634 33.136 451.109 33.529 450.497 33.811C449.885 34.093 449.201 34.234 448.445 34.234ZM458.288 34.171C457.814 34.141 457.352 34.045 456.902 33.883C456.452 33.721 456.056 33.502 455.714 33.226C455.378 32.944 455.126 32.614 454.958 32.236L456.551 31.552C456.629 31.714 456.764 31.873 456.956 32.029C457.154 32.185 457.385 32.314 457.649 32.416C457.913 32.512 458.189 32.56 458.477 32.56C458.759 32.56 459.02 32.521 459.26 32.443C459.506 32.359 459.707 32.233 459.863 32.065C460.019 31.897 460.097 31.696 460.097 31.462C460.097 31.198 460.007 30.994 459.827 30.85C459.653 30.7 459.434 30.586 459.17 30.508C458.906 30.43 458.642 30.355 458.378 30.283C457.79 30.151 457.25 29.971 456.758 29.743C456.272 29.509 455.885 29.212 455.597 28.852C455.309 28.486 455.165 28.039 455.165 27.511C455.165 26.935 455.321 26.437 455.633 26.017C455.945 25.591 456.353 25.264 456.857 25.036C457.367 24.808 457.91 24.694 458.486 24.694C459.206 24.694 459.866 24.847 460.466 25.153C461.066 25.459 461.525 25.879 461.843 26.413L460.358 27.295C460.268 27.115 460.133 26.953 459.953 26.809C459.773 26.665 459.569 26.551 459.341 26.467C459.113 26.377 458.876 26.326 458.63 26.314C458.324 26.302 458.039 26.338 457.775 26.422C457.517 26.5 457.31 26.626 457.154 26.8C456.998 26.974 456.92 27.196 456.92 27.466C456.92 27.73 457.013 27.928 457.199 28.06C457.385 28.186 457.619 28.288 457.901 28.366C458.189 28.444 458.483 28.531 458.783 28.627C459.317 28.795 459.818 29.002 460.286 29.248C460.754 29.488 461.132 29.785 461.42 30.139C461.708 30.493 461.846 30.925 461.834 31.435C461.834 31.999 461.663 32.494 461.321 32.92C460.985 33.346 460.547 33.67 460.007 33.892C459.467 34.114 458.894 34.207 458.288 34.171Z" fill="#595959"/>
</svg>
