<svg width="25" height="24" viewBox="0 0 25 24" fill="none" xmlns="http://www.w3.org/2000/svg">
<path fill-rule="evenodd" clip-rule="evenodd" d="M3.8335 10.3178C3.8335 5.71789 7.67738 2 12.3269 2C16.9896 2 20.8335 5.71789 20.8335 10.3178C20.8335 12.6357 19.9905 14.7876 18.603 16.6116C17.0723 18.6235 15.1857 20.3765 13.062 21.7524C12.576 22.0704 12.1374 22.0944 11.6039 21.7524C9.46823 20.3765 7.58158 18.6235 6.064 16.6116C4.67548 14.7876 3.8335 12.6357 3.8335 10.3178ZM9.52772 10.5768C9.52772 12.1177 10.7852 13.3297 12.3269 13.3297C13.8697 13.3297 15.1393 12.1177 15.1393 10.5768C15.1393 9.0478 13.8697 7.77683 12.3269 7.77683C10.7852 7.77683 9.52772 9.0478 9.52772 10.5768Z" fill="#25A59E"/>
</svg>
