<svg width="17" height="14" viewBox="0 0 17 14" fill="none" xmlns="http://www.w3.org/2000/svg">
<path fill-rule="evenodd" clip-rule="evenodd" d="M1.33301 8H13.198L9.56501 12.36C9.21101 12.784 9.26901 13.415 9.69301 13.768C10.118 14.122 10.748 14.064 11.102 13.64L16.102 7.64C16.141 7.593 16.16 7.538 16.189 7.486C16.213 7.444 16.242 7.408 16.26 7.362C16.305 7.247 16.332 7.126 16.332 7.004C16.332 7.003 16.333 7.001 16.333 7C16.333 6.999 16.332 6.997 16.332 6.996C16.332 6.874 16.305 6.753 16.26 6.638C16.242 6.592 16.213 6.556 16.189 6.514C16.16 6.462 16.141 6.407 16.102 6.36L11.102 0.36C10.903 0.123 10.619 0 10.333 0C10.107 0 9.88001 0.076 9.69301 0.232C9.26901 0.585 9.21101 1.216 9.56501 1.64L13.198 6H1.33301C0.781008 6 0.333008 6.448 0.333008 7C0.333008 7.552 0.781008 8 1.33301 8Z" fill="#25A59E"/>
</svg>
