<svg width="17" height="14" viewBox="0 0 17 14" fill="none" xmlns="http://www.w3.org/2000/svg">
<path fill-rule="evenodd" clip-rule="evenodd" d="M1.66699 8H13.532L9.89899 12.36C9.54499 12.784 9.60299 13.415 10.027 13.768C10.452 14.122 11.082 14.064 11.436 13.64L16.436 7.64C16.475 7.593 16.494 7.538 16.523 7.486C16.547 7.444 16.576 7.408 16.594 7.362C16.639 7.247 16.666 7.126 16.666 7.004C16.666 7.003 16.667 7.001 16.667 7C16.667 6.999 16.666 6.997 16.666 6.996C16.666 6.874 16.639 6.753 16.594 6.638C16.576 6.592 16.547 6.556 16.523 6.514C16.494 6.462 16.475 6.407 16.436 6.36L11.436 0.36C11.237 0.123 10.953 0 10.667 0C10.441 0 10.214 0.076 10.027 0.232C9.60299 0.585 9.54499 1.216 9.89899 1.64L13.532 6H1.66699C1.11499 6 0.666992 6.448 0.666992 7C0.666992 7.552 1.11499 8 1.66699 8Z" fill="white"/>
</svg>
