<svg width="141" height="141" viewBox="0 0 141 141" fill="none" xmlns="http://www.w3.org/2000/svg">
<g opacity="0.9">
<g filter="url(#filter0_b_13_2107)">
<circle cx="65.5" cy="65.5" r="65.5" transform="matrix(1 0 0 -1 5 136)" fill="#333333" fill-opacity="0.24"/>
<circle cx="65.5" cy="65.5" r="67.5625" transform="matrix(1 0 0 -1 5 136)" stroke="url(#paint0_linear_13_2107)" stroke-opacity="0.8" stroke-width="4.125"/>
</g>
<path fill-rule="evenodd" clip-rule="evenodd" d="M43.0688 69.9235C43.0688 85.3735 55.6326 97.9312 71.0603 97.9312C86.488 97.9312 99.0517 85.3735 99.0517 69.9235C99.0517 54.5059 86.488 41.9483 71.0603 41.9483C55.6326 41.9483 43.0688 54.5059 43.0688 69.9235ZM81.3274 67.0903C81.6246 67.3874 82.0029 67.8465 82.0839 67.9545C82.5162 68.5216 82.7324 69.2238 82.7324 69.9232C82.7324 70.7091 82.4892 71.4382 82.0299 72.0324C81.9923 72.07 81.9186 72.1502 81.8225 72.2548C81.6428 72.4504 81.3848 72.7312 81.1383 72.9776C78.9227 75.3541 73.1407 79.2429 70.1146 80.4311C69.6553 80.6175 68.4935 81.0253 67.8721 81.0523C67.2777 81.0523 66.7103 80.9172 66.1699 80.6472C65.4944 80.2691 64.954 79.675 64.6568 78.9728C64.4677 78.4867 64.1705 77.0284 64.1705 77.0014C63.8733 75.4081 63.7112 72.8155 63.7112 69.9529C63.7112 67.2226 63.8733 64.7408 64.1165 63.1205C64.1231 63.1138 64.1464 62.9979 64.1825 62.8179C64.2923 62.2705 64.5209 61.1303 64.7649 60.6629C65.3593 59.5287 66.5211 58.8265 67.764 58.8265H67.8721C68.6826 58.8536 70.3848 59.5557 70.3848 59.5827C73.2488 60.771 78.8957 64.4707 81.1653 66.9283L81.3274 67.0903Z" fill="url(#paint1_linear_13_2107)"/>
</g>
<defs>
<filter id="filter0_b_13_2107" x="-131.125" y="-131.125" width="403.25" height="403.25" filterUnits="userSpaceOnUse" color-interpolation-filters="sRGB">
<feFlood flood-opacity="0" result="BackgroundImageFix"/>
<feGaussianBlur in="BackgroundImageFix" stdDeviation="66"/>
<feComposite in2="SourceAlpha" operator="in" result="effect1_backgroundBlur_13_2107"/>
<feBlend mode="normal" in="SourceGraphic" in2="effect1_backgroundBlur_13_2107" result="shape"/>
</filter>
<linearGradient id="paint0_linear_13_2107" x1="66.0598" y1="-4.40991e-08" x2="65.5" y2="131" gradientUnits="userSpaceOnUse">
<stop stop-color="white"/>
<stop offset="1" stop-color="white" stop-opacity="0.1"/>
</linearGradient>
<linearGradient id="paint1_linear_13_2107" x1="71.0603" y1="44.1876" x2="71.0603" y2="97.9312" gradientUnits="userSpaceOnUse">
<stop stop-color="white"/>
<stop offset="1" stop-color="white" stop-opacity="0.8"/>
</linearGradient>
</defs>
</svg>
