<svg width="184" height="42" viewBox="0 0 184 42" fill="none" xmlns="http://www.w3.org/2000/svg">
<g clip-path="url(#clip0_3196_109)">
<g filter="url(#filter0_d_3196_109)">
<g filter="url(#filter1_b_3196_109)">
<path fill-rule="evenodd" clip-rule="evenodd" d="M0 21C0 9.95431 8.95431 1 20 1C31.0457 1 40 9.95431 40 21C40 32.0457 31.0457 41 20 41C8.95431 41 0 32.0457 0 21Z" fill="#EAFAF9"/>
</g>
<path fill-rule="evenodd" clip-rule="evenodd" d="M20.0017 10.334C17.1047 10.334 16.7412 10.3467 15.6034 10.3984C14.4678 10.4504 13.6927 10.6302 13.0145 10.894C12.3129 11.1664 11.7178 11.5309 11.1249 12.124C10.5316 12.7169 10.1671 13.312 9.89377 14.0134C9.62932 14.6918 9.44932 15.4671 9.39821 16.6023C9.34732 17.7401 9.33398 18.1038 9.33398 21.0008C9.33398 23.8977 9.34687 24.2601 9.39843 25.3979C9.45065 26.5335 9.63043 27.3086 9.89399 27.9868C10.1667 28.6884 10.5311 29.2835 11.1242 29.8764C11.7169 30.4697 12.312 30.8351 13.0131 31.1075C13.6918 31.3713 14.4671 31.5511 15.6025 31.6031C16.7403 31.6549 17.1036 31.6675 20.0003 31.6675C22.8975 31.6675 23.2599 31.6549 24.3977 31.6031C25.5333 31.5511 26.3093 31.3713 26.9879 31.1075C27.6893 30.8351 28.2835 30.4697 28.8762 29.8764C29.4695 29.2835 29.834 28.6884 30.1073 27.9871C30.3695 27.3086 30.5495 26.5333 30.6029 25.3981C30.654 24.2604 30.6673 23.8977 30.6673 21.0008C30.6673 18.1038 30.654 17.7403 30.6029 16.6025C30.5495 15.4669 30.3695 14.6918 30.1073 14.0136C29.834 13.312 29.4695 12.7169 28.8762 12.124C28.2828 11.5307 27.6895 11.1662 26.9873 10.894C26.3073 10.6302 25.5317 10.4504 24.3961 10.3984C23.2584 10.3467 22.8961 10.334 19.9983 10.334H20.0017ZM19.0447 12.2562C19.3287 12.2558 19.6456 12.2562 20.0016 12.2562C22.8496 12.2562 23.1872 12.2664 24.3119 12.3175C25.3519 12.3651 25.9163 12.5389 26.2923 12.6849C26.7901 12.8782 27.145 13.1093 27.5181 13.4827C27.8915 13.856 28.1226 14.2116 28.3164 14.7093C28.4624 15.0849 28.6364 15.6493 28.6837 16.6894C28.7348 17.8138 28.7459 18.1516 28.7459 20.9983C28.7459 23.845 28.7348 24.1828 28.6837 25.3072C28.6361 26.3472 28.4624 26.9117 28.3164 27.2872C28.123 27.785 27.8915 28.1395 27.5181 28.5126C27.1448 28.8859 26.7903 29.117 26.2923 29.3104C25.9168 29.457 25.3519 29.6304 24.3119 29.6779C23.1874 29.729 22.8496 29.7402 20.0016 29.7402C17.1534 29.7402 16.8158 29.729 15.6913 29.6779C14.6513 29.6299 14.0869 29.4562 13.7107 29.3102C13.2129 29.1168 12.8573 28.8857 12.484 28.5124C12.1106 28.139 11.8795 27.7844 11.6857 27.2864C11.5397 26.9108 11.3657 26.3463 11.3184 25.3063C11.2673 24.1819 11.2571 23.8441 11.2571 20.9956C11.2571 18.1471 11.2673 17.8111 11.3184 16.6867C11.366 15.6467 11.5397 15.0822 11.6857 14.7062C11.8791 14.2084 12.1106 13.8529 12.484 13.4795C12.8573 13.1062 13.2129 12.8751 13.7107 12.6813C14.0867 12.5346 14.6513 12.3613 15.6913 12.3135C16.6753 12.2691 17.0567 12.2558 19.0447 12.2535V12.2562ZM25.6954 14.0273C24.9888 14.0273 24.4154 14.6 24.4154 15.3069C24.4154 16.0136 24.9888 16.5869 25.6954 16.5869C26.4021 16.5869 26.9755 16.0136 26.9755 15.3069C26.9755 14.6002 26.4021 14.0273 25.6954 14.0273ZM20.0017 15.5229C16.9765 15.5229 14.5238 17.9756 14.5238 21.0007C14.5238 24.0259 16.9765 26.4775 20.0017 26.4775C23.0268 26.4775 25.4786 24.0259 25.4786 21.0007C25.4786 17.9756 23.0268 15.5229 20.0017 15.5229ZM20.0016 17.4451C21.9652 17.4451 23.5572 19.0369 23.5572 21.0007C23.5572 22.9643 21.9652 24.5563 20.0016 24.5563C18.0378 24.5563 16.446 22.9643 16.446 21.0007C16.446 19.0369 18.0378 17.4451 20.0016 17.4451Z" fill="#25A59E"/>
</g>
<g filter="url(#filter2_d_3196_109)">
<g filter="url(#filter3_b_3196_109)">
<path fill-rule="evenodd" clip-rule="evenodd" d="M72 21C72 9.95431 80.9543 1 92 1C103.046 1 112 9.95431 112 21C112 32.0457 103.046 41 92 41C80.9543 41 72 32.0457 72 21Z" fill="#EAFAF9"/>
</g>
<path fill-rule="evenodd" clip-rule="evenodd" d="M91.401 17.2562L91.443 17.9483L90.7435 17.8636C88.1974 17.5387 85.973 16.4371 84.0844 14.5869L83.1611 13.6689L82.9233 14.3468C82.4197 15.858 82.7414 17.454 83.7907 18.5274C84.3503 19.1205 84.2243 19.2053 83.2591 18.8522C82.9233 18.7392 82.6295 18.6545 82.6016 18.6968C82.5036 18.7957 82.8394 20.0809 83.1052 20.5894C83.4689 21.2955 84.2104 21.9876 85.0218 22.3972L85.7072 22.722L84.8958 22.7361C84.1124 22.7361 84.0844 22.7502 84.1684 23.0468C84.4482 23.9648 85.5534 24.9394 86.7844 25.3631L87.6518 25.6597L86.8964 26.1116C85.7772 26.7613 84.4622 27.1285 83.1471 27.1567C82.5176 27.1709 82 27.2273 82 27.2697C82 27.4109 83.7067 28.2019 84.7 28.5126C87.6798 29.4306 91.2191 29.0351 93.8772 27.4674C95.7658 26.3517 97.6543 24.1343 98.5357 21.9876C99.0113 20.8436 99.487 18.7533 99.487 17.7506C99.487 17.1009 99.529 17.0162 100.312 16.2394C100.774 15.7874 101.208 15.2931 101.292 15.1519C101.432 14.8835 101.418 14.8835 100.704 15.1236C99.515 15.5473 99.3471 15.4908 99.9347 14.8553C100.368 14.4033 100.886 13.5842 100.886 13.3441C100.886 13.3017 100.676 13.3723 100.438 13.4994C100.186 13.6407 99.6269 13.8525 99.2072 13.9796L98.4518 14.2197L97.7663 13.7537C97.3885 13.4994 96.8569 13.217 96.5772 13.1322C95.8637 12.9345 94.7725 12.9627 94.129 13.1887C92.3803 13.8243 91.2751 15.4626 91.401 17.2562Z" fill="#25A59E"/>
</g>
<g filter="url(#filter4_d_3196_109)">
<g filter="url(#filter5_b_3196_109)">
<path fill-rule="evenodd" clip-rule="evenodd" d="M144 21C144 9.95431 152.954 1 164 1C175.046 1 184 9.95431 184 21C184 32.0457 175.046 41 164 41C152.954 41 144 32.0457 144 21Z" fill="#EAFAF9"/>
</g>
<path fill-rule="evenodd" clip-rule="evenodd" d="M172.335 14.1238C173.253 14.3757 173.976 15.1179 174.222 16.0604C174.667 17.7685 174.667 21.3327 174.667 21.3327C174.667 21.3327 174.667 24.8967 174.222 26.605C173.976 27.5475 173.253 28.2897 172.335 28.5417C170.672 28.9994 164.001 28.9994 164.001 28.9994C164.001 28.9994 157.329 28.9994 155.666 28.5417C154.748 28.2897 154.025 27.5475 153.78 26.605C153.334 24.8967 153.334 21.3327 153.334 21.3327C153.334 21.3327 153.334 17.7685 153.78 16.0604C154.025 15.1179 154.748 14.3757 155.666 14.1238C157.329 13.666 164.001 13.666 164.001 13.666C164.001 13.666 170.672 13.666 172.335 14.1238ZM162.001 18.3326V24.9993L167.334 21.6661L162.001 18.3326Z" fill="#25A59E"/>
</g>
</g>
<defs>
<filter id="filter0_d_3196_109" x="-15.5923" y="-69.633" width="282.083" height="282.083" filterUnits="userSpaceOnUse" color-interpolation-filters="sRGB">
<feFlood flood-opacity="0" result="BackgroundImageFix"/>
<feColorMatrix in="SourceAlpha" type="matrix" values="0 0 0 0 0 0 0 0 0 0 0 0 0 0 0 0 0 0 127 0" result="hardAlpha"/>
<feOffset dx="105.449" dy="50.4088"/>
<feGaussianBlur stdDeviation="60.5209"/>
<feComposite in2="hardAlpha" operator="out"/>
<feColorMatrix type="matrix" values="0 0 0 0 0.172549 0 0 0 0 0.113725 0 0 0 0 0.235294 0 0 0 0.25 0"/>
<feBlend mode="normal" in2="BackgroundImageFix" result="effect1_dropShadow_3196_109"/>
<feBlend mode="normal" in="SourceGraphic" in2="effect1_dropShadow_3196_109" result="shape"/>
</filter>
<filter id="filter1_b_3196_109" x="-9" y="-8" width="58" height="58" filterUnits="userSpaceOnUse" color-interpolation-filters="sRGB">
<feFlood flood-opacity="0" result="BackgroundImageFix"/>
<feGaussianBlur in="BackgroundImageFix" stdDeviation="4.5"/>
<feComposite in2="SourceAlpha" operator="in" result="effect1_backgroundBlur_3196_109"/>
<feBlend mode="normal" in="SourceGraphic" in2="effect1_backgroundBlur_3196_109" result="shape"/>
</filter>
<filter id="filter2_d_3196_109" x="56.4077" y="-69.633" width="282.083" height="282.083" filterUnits="userSpaceOnUse" color-interpolation-filters="sRGB">
<feFlood flood-opacity="0" result="BackgroundImageFix"/>
<feColorMatrix in="SourceAlpha" type="matrix" values="0 0 0 0 0 0 0 0 0 0 0 0 0 0 0 0 0 0 127 0" result="hardAlpha"/>
<feOffset dx="105.449" dy="50.4088"/>
<feGaussianBlur stdDeviation="60.5209"/>
<feComposite in2="hardAlpha" operator="out"/>
<feColorMatrix type="matrix" values="0 0 0 0 0.172549 0 0 0 0 0.113725 0 0 0 0 0.235294 0 0 0 0.25 0"/>
<feBlend mode="normal" in2="BackgroundImageFix" result="effect1_dropShadow_3196_109"/>
<feBlend mode="normal" in="SourceGraphic" in2="effect1_dropShadow_3196_109" result="shape"/>
</filter>
<filter id="filter3_b_3196_109" x="63" y="-8" width="58" height="58" filterUnits="userSpaceOnUse" color-interpolation-filters="sRGB">
<feFlood flood-opacity="0" result="BackgroundImageFix"/>
<feGaussianBlur in="BackgroundImageFix" stdDeviation="4.5"/>
<feComposite in2="SourceAlpha" operator="in" result="effect1_backgroundBlur_3196_109"/>
<feBlend mode="normal" in="SourceGraphic" in2="effect1_backgroundBlur_3196_109" result="shape"/>
</filter>
<filter id="filter4_d_3196_109" x="128.408" y="-69.633" width="282.083" height="282.083" filterUnits="userSpaceOnUse" color-interpolation-filters="sRGB">
<feFlood flood-opacity="0" result="BackgroundImageFix"/>
<feColorMatrix in="SourceAlpha" type="matrix" values="0 0 0 0 0 0 0 0 0 0 0 0 0 0 0 0 0 0 127 0" result="hardAlpha"/>
<feOffset dx="105.449" dy="50.4088"/>
<feGaussianBlur stdDeviation="60.5209"/>
<feComposite in2="hardAlpha" operator="out"/>
<feColorMatrix type="matrix" values="0 0 0 0 0.172549 0 0 0 0 0.113725 0 0 0 0 0.235294 0 0 0 0.25 0"/>
<feBlend mode="normal" in2="BackgroundImageFix" result="effect1_dropShadow_3196_109"/>
<feBlend mode="normal" in="SourceGraphic" in2="effect1_dropShadow_3196_109" result="shape"/>
</filter>
<filter id="filter5_b_3196_109" x="135" y="-8" width="58" height="58" filterUnits="userSpaceOnUse" color-interpolation-filters="sRGB">
<feFlood flood-opacity="0" result="BackgroundImageFix"/>
<feGaussianBlur in="BackgroundImageFix" stdDeviation="4.5"/>
<feComposite in2="SourceAlpha" operator="in" result="effect1_backgroundBlur_3196_109"/>
<feBlend mode="normal" in="SourceGraphic" in2="effect1_backgroundBlur_3196_109" result="shape"/>
</filter>
<clipPath id="clip0_3196_109">
<rect width="184" height="42" fill="white"/>
</clipPath>
</defs>
</svg>
